<svg width="18" height="18" viewBox="0 0 18 18" fill="none" xmlns="http://www.w3.org/2000/svg">
<path d="M4.55929 1.12868C4.55955 1.42695 4.67825 1.71291 4.88929 1.92368L10.6433 7.67768C10.8175 7.8518 10.9556 8.05852 11.0499 8.28604C11.1441 8.51356 11.1926 8.75741 11.1926 9.00368C11.1926 9.24995 11.1441 9.49381 11.0499 9.72133C10.9556 9.94885 10.8175 10.1556 10.6433 10.3297L4.89679 16.0762C4.69186 16.2884 4.57847 16.5725 4.58103 16.8675C4.5836 17.1625 4.70191 17.4446 4.91049 17.6532C5.11908 17.8618 5.40124 17.9801 5.69621 17.9827C5.99119 17.9853 6.27536 17.8719 6.48754 17.6669L12.234 11.9249C13.0067 11.1507 13.4407 10.1016 13.4407 9.00781C13.4407 7.914 13.0067 6.86488 12.234 6.09068L6.48004 0.332934C6.3227 0.175497 6.1222 0.0682694 5.90391 0.0248188C5.68561 -0.0186318 5.45933 0.00364782 5.2537 0.0888384C5.04807 0.174029 4.87233 0.318302 4.74872 0.503401C4.62512 0.6885 4.55919 0.906106 4.55929 1.12868Z" fill="#111111"/>
</svg>
