<svg width="12" height="24" viewBox="0 0 12 24" fill="none" xmlns="http://www.w3.org/2000/svg">
<path d="M11.9209 1.50508C11.9206 1.90277 11.7623 2.28404 11.4809 2.56508L3.80895 10.2371C3.57673 10.4692 3.39252 10.7449 3.26684 11.0482C3.14117 11.3516 3.07648 11.6767 3.07648 12.0051C3.07648 12.3334 3.14117 12.6586 3.26684 12.9619C3.39252 13.2653 3.57673 13.5409 3.80895 13.7731L11.4709 21.4351C11.7442 21.718 11.8954 22.0969 11.892 22.4902C11.8885 22.8835 11.7308 23.2597 11.4527 23.5378C11.1746 23.8159 10.7983 23.9737 10.405 23.9771C10.0118 23.9805 9.63285 23.8293 9.34995 23.5561L1.68795 15.9001C0.657711 14.8678 0.0791016 13.469 0.0791016 12.0106C0.0791016 10.5522 0.657711 9.15334 1.68795 8.12108L9.35995 0.444075C9.56973 0.234159 9.83706 0.0911886 10.1281 0.0332545C10.4192 -0.0246796 10.7209 0.00502652 10.9951 0.118614C11.2692 0.232201 11.5036 0.424565 11.6684 0.671364C11.8332 0.918163 11.9211 1.2083 11.9209 1.50508Z" fill="#374957"/>
</svg>
