<svg width="24" height="28" viewBox="0 0 24 28" fill="none" xmlns="http://www.w3.org/2000/svg">
<path d="M5 4.66666H19M5 4.66666H4.5M5 4.66666L6 14M19 4.66666H19.5M19 4.66666L18 14M6 14L6.78101 21.2894C6.90612 22.457 7.75692 23.3333 8.76556 23.3333H15.2344C16.2431 23.3333 17.0939 22.457 17.219 21.2894L18 14M6 14L8.07203 13.1942C8.65754 12.9666 9.30036 13.0669 9.81388 13.4664L10.8906 14.3038C11.5624 14.8263 12.4376 14.8263 13.1094 14.3038L14.1861 13.4664C14.6996 13.0669 15.3425 12.9666 15.928 13.1942L18 14" stroke="black" stroke-width="2" stroke-linecap="round" stroke-linejoin="round"/>
</svg>
