<svg width="64" height="64" viewBox="0 0 64 64" fill="none" xmlns="http://www.w3.org/2000/svg">
<circle cx="32" cy="32" r="32" fill="#F2EEFF"/>
<path d="M22.25 23.75L22.25 40.25L29 47L35 47L41.75 40.25L41.75 23.75L35 17L29 17L22.25 23.75Z" fill="#4DCDB6"/>
<path fill-rule="evenodd" clip-rule="evenodd" d="M21.7197 23.2197C21.579 23.3603 21.5 23.5511 21.5 23.75L21.5 40.25C21.5 40.4489 21.579 40.6397 21.7197 40.7803L28.4697 47.5303C28.6103 47.671 28.8011 47.75 29 47.75L35 47.75C35.1989 47.75 35.3897 47.671 35.5303 47.5303L42.2803 40.7803C42.421 40.6397 42.5 40.4489 42.5 40.25L42.5 23.75C42.5 23.5511 42.421 23.3603 42.2803 23.2197L35.5303 16.4697C35.3897 16.329 35.1989 16.25 35 16.25L29 16.25C28.8011 16.25 28.6103 16.329 28.4697 16.4697L21.7197 23.2197ZM29 17L22.25 23.75L22.25 40.25L29 47L35 47L41.75 40.25L41.75 23.75L35 17L29 17Z" fill="#02476F"/>
<path d="M22.25 40.25L22.25 23.75L27.875 25.625L27.875 38.375L22.25 40.25Z" fill="#61E9C0"/>
<path d="M29 17L22.25 23.75L27.875 25.625L32 20.75L35 17L29 17Z" fill="#B1FFF1"/>
<path d="M36.125 38.375L32 43.25L29 47L35 47L41.75 40.25L41.75 23.75L35 17L32 20.75L36.125 25.625L36.125 38.375Z" fill="#1EB5AC"/>
<path d="M41.75 23.75L41.75 40.25L36.125 38.375L36.125 25.625L41.75 23.75Z" fill="#2E90A6"/>
<path d="M41 27.5C41 27.9142 40.6642 28.25 40.25 28.25C39.8358 28.25 39.5 27.9142 39.5 27.5C39.5 27.0858 39.8358 26.75 40.25 26.75C40.6642 26.75 41 27.0858 41 27.5Z" fill="#3AA2B9"/>
<path d="M39.875 30.6875C39.875 30.9982 39.6232 31.25 39.3125 31.25C39.0018 31.25 38.75 30.9982 38.75 30.6875C38.75 30.3768 39.0018 30.125 39.3125 30.125C39.6232 30.125 39.875 30.3768 39.875 30.6875Z" fill="#3AA2B9"/>
<path d="M41 29.75C41 29.9571 40.8321 30.125 40.625 30.125C40.4179 30.125 40.25 29.9571 40.25 29.75C40.25 29.5429 40.4179 29.375 40.625 29.375C40.8321 29.375 41 29.5429 41 29.75Z" fill="#3AA2B9"/>
<path d="M39.125 28.625C39.125 28.8321 38.9571 29 38.75 29C38.5429 29 38.375 28.8321 38.375 28.625C38.375 28.4179 38.5429 28.25 38.75 28.25C38.9571 28.25 39.125 28.4179 39.125 28.625Z" fill="#3AA2B9"/>
<path d="M41 25.25C41 25.4571 40.8321 25.625 40.625 25.625C40.4179 25.625 40.25 25.4571 40.25 25.25C40.25 25.0429 40.4179 24.875 40.625 24.875C40.8321 24.875 41 25.0429 41 25.25Z" fill="#3AA2B9"/>
<path d="M41 34.25C41 34.4571 40.8321 34.625 40.625 34.625C40.4179 34.625 40.25 34.4571 40.25 34.25C40.25 34.0429 40.4179 33.875 40.625 33.875C40.8321 33.875 41 34.0429 41 34.25Z" fill="#3AA2B9"/>
<path d="M41 32.375C41 32.5821 40.8321 32.75 40.625 32.75C40.4179 32.75 40.25 32.5821 40.25 32.375C40.25 32.1679 40.4179 32 40.625 32C40.8321 32 41 32.1679 41 32.375Z" fill="#3AA2B9"/>
<path d="M27.875 25.625L27.875 38.375L32 43.25L36.125 38.3926L36.125 25.625L32 20.75L27.875 25.625Z" fill="#63EAD1"/>
<path d="M27.875 38.375L27.875 25.625L32 20.75L36.125 25.625L27.875 38.375Z" fill="#84F8E3"/>
<path fill-rule="evenodd" clip-rule="evenodd" d="M32.2375 21.5848C32.3978 21.7159 32.4214 21.9522 32.2902 22.1125L29 26.1339V33.875C29 34.0821 28.8321 34.25 28.625 34.25C28.4179 34.25 28.25 34.0821 28.25 33.875V26C28.25 25.9134 28.2799 25.8295 28.3348 25.7625L31.7098 21.6375C31.8409 21.4773 32.0772 21.4536 32.2375 21.5848Z" fill="#DFFFF9"/>
<path fill-rule="evenodd" clip-rule="evenodd" d="M23 24.5C23.2071 24.5 23.375 24.6679 23.375 24.875V39.125C23.375 39.3321 23.2071 39.5 23 39.5C22.7929 39.5 22.625 39.3321 22.625 39.125V24.875C22.625 24.6679 22.7929 24.5 23 24.5Z" fill="#70FFE5"/>
<path d="M39.5 41.1875C39.5 41.4982 39.2482 41.75 38.9375 41.75C38.6268 41.75 38.375 41.4982 38.375 41.1875C38.375 40.8768 38.6268 40.625 38.9375 40.625C39.2482 40.625 39.5 40.8768 39.5 41.1875Z" fill="#0FA299"/>
<path d="M35.75 44.9375C35.75 45.2482 35.4982 45.5 35.1875 45.5C34.8768 45.5 34.625 45.2482 34.625 44.9375C34.625 44.6268 34.8768 44.375 35.1875 44.375C35.4982 44.375 35.75 44.6268 35.75 44.9375Z" fill="#0FA299"/>
<path d="M37.25 43.4375C37.25 43.7482 36.9982 44 36.6875 44C36.3768 44 36.125 43.7482 36.125 43.4375C36.125 43.1268 36.3768 42.875 36.6875 42.875C36.9982 42.875 37.25 43.1268 37.25 43.4375Z" fill="#0FA299"/>
<path d="M35.375 42.5C35.375 42.7071 35.2071 42.875 35 42.875C34.7929 42.875 34.625 42.7071 34.625 42.5C34.625 42.2929 34.7929 42.125 35 42.125C35.2071 42.125 35.375 42.2929 35.375 42.5Z" fill="#0FA299"/>
<path d="M38 42.5C38 42.7071 37.8321 42.875 37.625 42.875C37.4179 42.875 37.25 42.7071 37.25 42.5C37.25 42.2929 37.4179 42.125 37.625 42.125C37.8321 42.125 38 42.2929 38 42.5Z" fill="#0FA299"/>
<path d="M37.25 41C37.25 41.4142 36.9142 41.75 36.5 41.75C36.0858 41.75 35.75 41.4142 35.75 41C35.75 40.5858 36.0858 40.25 36.5 40.25C36.9142 40.25 37.25 40.5858 37.25 41Z" fill="#0FA299"/>
<path fill-rule="evenodd" clip-rule="evenodd" d="M29.6402 17.4848C29.7866 17.6313 29.7866 17.8687 29.6402 18.0152L24.0152 23.6402C23.8687 23.7866 23.6313 23.7866 23.4848 23.6402C23.3384 23.4937 23.3384 23.2563 23.4848 23.1098L29.1098 17.4848C29.2563 17.3384 29.4937 17.3384 29.6402 17.4848Z" fill="#E6FFFA"/>
</svg>
