<svg width="28" height="28" viewBox="0 0 28 28" fill="none" xmlns="http://www.w3.org/2000/svg">
<path d="M24.9375 19.25H24.71C25.13 18.62 25.375 17.8675 25.375 17.0625C25.375 16.0563 24.9813 15.1025 24.3075 14.3763C24.43 13.9738 24.5 13.5625 24.5 13.125C24.5 11.55 23.6513 10.1763 22.4 9.40625L26.915 4.06875C27.23 3.70125 27.1775 3.15 26.81 2.835C26.4425 2.52 25.8912 2.5725 25.5763 2.94L22.1025 7.0525L23.59 2.00375C23.73 1.54 23.4587 1.05 22.995 0.918751C22.5225 0.778751 22.0413 1.05 21.91 1.51375L19.7663 8.79375C19.5475 8.81125 19.3288 8.8375 19.1187 8.88125C18.2175 7.70875 16.8175 7 15.3125 7C13.0988 7 11.2437 8.46125 10.6838 10.5088C10.6225 10.5088 10.5612 10.5 10.5 10.5C7.60375 10.5 5.25 12.8538 5.25 15.75C3.80625 15.75 2.625 16.9313 2.625 18.375C2.625 18.69 2.68625 18.9963 2.79125 19.2763C1.715 19.4075 0.875 20.3263 0.875 21.4375C0.875 22.645 1.855 23.625 3.0625 23.625H4.01625L6.23875 25.8475C7.06125 26.67 8.155 27.125 9.3275 27.125H18.6812C19.8538 27.125 20.9475 26.67 21.7787 25.8475L23.9837 23.625H24.9375C26.145 23.625 27.125 22.645 27.125 21.4375C27.125 20.23 26.145 19.25 24.9375 19.25ZM5.7225 17.64C5.7225 17.64 5.73125 17.64 5.73125 17.6488C5.78375 17.6925 5.83625 17.7188 5.8975 17.745C5.9325 17.7625 5.95875 17.7888 5.985 17.7975C6.08125 17.8325 6.18625 17.85 6.29125 17.85C6.7725 17.85 7.16625 17.4563 7.16625 16.975C7.16625 16.8963 7.1575 16.8088 7.13125 16.73C7.04375 16.4063 7 16.0825 7 15.75C7 13.8163 8.56625 12.25 10.5 12.25C10.7188 12.25 10.9637 12.2763 11.235 12.32C11.2525 12.32 11.2613 12.32 11.2788 12.32C11.2963 12.32 11.305 12.3288 11.3138 12.3288C11.34 12.3288 11.3663 12.3288 11.3925 12.3288C11.4275 12.3288 11.4537 12.3113 11.4888 12.3113C11.5413 12.3025 11.5938 12.2938 11.6463 12.285C11.7075 12.2675 11.7513 12.2413 11.8038 12.215C11.8475 12.1888 11.8912 12.1713 11.9263 12.1363C11.97 12.1013 12.0138 12.0575 12.0487 12.005C12.0838 11.97 12.11 11.935 12.1362 11.8913C12.1713 11.8388 12.1888 11.7775 12.2063 11.7163C12.215 11.6813 12.2413 11.6463 12.25 11.6113C12.25 11.5938 12.25 11.585 12.25 11.5675C12.25 11.55 12.2587 11.5413 12.2587 11.5325C12.3988 9.975 13.7375 8.75 15.3125 8.75C16.4325 8.75 17.4562 9.35375 17.99 10.3338C18.0162 10.3775 18.0513 10.4038 18.0775 10.4388C18.1125 10.4913 18.1475 10.535 18.1912 10.5788C18.235 10.6138 18.2788 10.64 18.3313 10.6663C18.3838 10.6925 18.4275 10.7275 18.48 10.745C18.5325 10.7625 18.5938 10.7625 18.6462 10.7713C18.6987 10.78 18.7512 10.7888 18.8037 10.7888C18.8562 10.7888 18.9088 10.7713 18.9613 10.7538L15.9425 14.315C15.6275 14.6825 15.68 15.2338 16.0475 15.5488C16.2225 15.68 16.4237 15.75 16.625 15.75C16.87 15.75 17.1238 15.645 17.29 15.4438L18.0863 14.5075L17.535 16.3888C17.395 16.8525 17.6663 17.3425 18.13 17.4738C18.2087 17.4913 18.2962 17.5 18.375 17.5C18.7512 17.5 19.1012 17.255 19.215 16.87L20.8863 11.1913L21.2537 10.7538C22.1375 11.1825 22.75 12.0838 22.75 13.125C22.75 13.5188 22.6625 13.8863 22.4963 14.2275C22.4787 14.2538 22.4788 14.2888 22.47 14.3238C22.4525 14.3763 22.435 14.4375 22.4262 14.49C22.4175 14.5425 22.4175 14.6038 22.4175 14.6563C22.4175 14.7088 22.4262 14.7613 22.435 14.8225C22.4525 14.875 22.47 14.9275 22.4875 14.98C22.5138 15.0325 22.5312 15.0763 22.5662 15.12C22.6013 15.1725 22.6362 15.2075 22.6888 15.2513C22.715 15.2775 22.7238 15.3038 22.7588 15.3213C23.3013 15.7238 23.6338 16.3713 23.6338 17.0625C23.6338 18.27 22.6537 19.25 21.4463 19.25H5.25C4.76875 19.25 4.375 18.8563 4.375 18.375C4.375 17.7188 5.15375 17.2725 5.7225 17.64Z" fill="black"/>
<path d="M9.26626 17.8588C9.49376 17.8588 9.71251 17.7713 9.88751 17.605C10.2288 17.2638 10.2288 16.7125 9.88751 16.3713C9.54626 16.03 9.54626 15.4788 9.88751 15.1375C10.2288 14.7963 10.78 14.7963 11.1213 15.1375C11.4625 15.4788 12.0138 15.4788 12.355 15.1375C12.6963 14.7963 12.6963 14.245 12.355 13.9038C11.3313 12.88 9.66876 12.88 8.64501 13.9038C7.62126 14.9275 7.62126 16.59 8.64501 17.6138C8.81126 17.78 9.03876 17.8588 9.26626 17.8588Z" fill="black"/>
</svg>
