<svg width="64" height="64" viewBox="0 0 64 64" fill="none" xmlns="http://www.w3.org/2000/svg">
<circle cx="32" cy="32" r="32" fill="#F2EEFF"/>
<path d="M24.1486 31.3077C28.1088 27.5787 28.8999 22.0769 28.8999 19C34.2214 22.6923 37.1927 30.6667 37.5095 34C39.7902 34 41.2534 31.3077 42.2037 29.7692C46.9551 45.1538 37.3127 48.2308 31.611 49C21.158 47.4615 16.8643 38.1667 24.1486 31.3077Z" fill="#D24940"/>
<path fill-rule="evenodd" clip-rule="evenodd" d="M28.5418 18.3311C28.8078 18.2033 29.1271 18.228 29.3677 18.3949C32.1764 20.3438 34.32 23.3837 35.7958 26.3114C37.0676 28.8343 37.8803 31.348 38.1887 33.1336C38.7259 32.9488 39.242 32.5495 39.7501 31.9783C40.3602 31.2924 40.8581 30.4755 41.2995 29.7514C41.3747 29.628 41.4483 29.5073 41.5204 29.3904C41.6801 29.132 41.9867 28.9883 42.3004 29.0248C42.6141 29.0614 42.8748 29.2712 42.9635 29.5586C45.3823 37.3904 44.1952 42.3032 41.4277 45.3542C38.7042 48.3566 34.6226 49.3513 31.7226 49.7425C31.6453 49.7529 31.5667 49.7525 31.4895 49.7411C26.0451 48.9398 22.0913 46.0962 20.4965 42.4352C18.89 38.7473 19.7494 34.3926 23.5905 30.7758C27.3254 27.2589 28.1082 22.0085 28.1082 19C28.1082 18.7175 28.2758 18.4589 28.5418 18.3311ZM38.2939 33.8909C38.1962 33.9184 38.0967 33.9411 37.9955 33.9585C37.8378 33.9857 37.6758 34 37.5095 34C37.2086 30.8338 34.5127 23.4803 29.6826 19.5866C29.4276 19.381 29.1667 19.1851 28.8999 19C28.8999 19.2892 28.8929 19.5999 28.877 19.9285C28.7232 23.0957 27.7365 27.9293 24.1486 31.3077C16.8643 38.1667 21.158 47.4615 31.611 49C37.1855 48.2479 46.5267 45.29 42.5005 30.781C42.4086 30.4498 42.3098 30.1126 42.2037 29.7692C42.1357 29.8794 42.065 29.9955 41.9915 30.1161C41.8838 30.2931 41.7701 30.4798 41.6502 30.6717C40.8474 31.9566 39.7639 33.4761 38.2939 33.8909Z" fill="#60050F"/>
<path d="M24.1486 31.3077C28.1088 27.5787 28.8999 22.0769 28.8999 19C29.6812 19.5421 30.4118 20.1765 31.0909 20.875C31.5671 25.375 28.2396 30.775 25.4688 32.875C23.4896 34.375 21.7083 36.25 21.7083 39.25C21.7083 44.659 27.4568 48.0998 30.7948 48.8619C31.0625 48.9132 31.3346 48.9593 31.611 49C31.3611 48.9748 31.0872 48.9286 30.7948 48.8619C20.939 46.9717 17.0569 37.9853 24.1486 31.3077Z" fill="#E95D54"/>
<path fill-rule="evenodd" clip-rule="evenodd" d="M20.54 38.2254C20.1971 43.271 24.4646 47.9481 31.611 48.9999C37.3127 48.2307 46.9551 45.1538 42.2037 29.7692C42.1357 29.8793 42.065 29.9954 41.9915 30.1161C41.9448 30.1928 41.8969 30.2715 41.8479 30.3515C45.4622 43.9819 36.5607 46.7828 31.2286 47.4999C24.8512 46.5642 20.8483 42.6477 20.54 38.2254ZM37.6874 33.9944C37.6287 33.9981 37.5694 33.9999 37.5095 33.9999C37.2318 31.0778 34.9141 24.5891 30.7615 20.5452C34.5048 24.6968 36.4901 31.4611 36.75 34.1874C37.0652 34.1874 37.3794 34.1183 37.6874 33.9944Z" fill="#AB3028"/>
<path d="M31.6042 49C20.7187 47.6875 26.2604 34.1875 31.9999 29.6875C31.0104 36.4375 36.5001 36.03 37.1458 42.25C37.5416 46.0625 35.9583 48.625 31.6042 49Z" fill="#FF784E"/>
<path d="M31.6042 49C23.3394 47.4167 26.9019 37.9167 30.6586 34.75C30.6587 40.2917 35.1667 39.5 35.1667 44.25C35.1667 47.4167 33.5834 48.8125 31.6042 49Z" fill="#FFB45C"/>
<path d="M31.6451 49C36.1532 48.1667 33.5834 43.5625 31.4062 41.5C31.6042 44.6875 29.823 44.5 29.625 46.5625C29.4936 47.9318 30.6889 48.8611 31.6451 49Z" fill="#F5992D"/>
<path d="M31.6043 49C33.9793 48.625 32.7917 46.1875 31.6042 44.875C31.4063 46.375 30.526 46.525 30.422 47.6594C30.3529 48.4125 31.1019 48.9236 31.6043 49Z" fill="#E27F0A"/>
<path d="M31.3522 48.9485C23.4129 47.2213 26.9406 37.884 30.6586 34.75C30.6586 36.0456 30.905 36.995 31.2826 37.75C30.5322 38.4375 28.9125 40.675 28.4375 44.125C27.994 47.3462 30.103 48.6386 31.3522 48.9485C31.4349 48.9665 31.5189 48.9837 31.6042 49C31.5254 48.9876 31.4409 48.9705 31.3522 48.9485Z" fill="#FFC46A"/>
<path fill-rule="evenodd" clip-rule="evenodd" d="M41.9307 31.6343C42.1075 31.7561 42.1466 31.9906 42.018 32.1581C41.7392 32.5214 41.2364 33.0844 40.6183 33.6166C40.0049 34.1447 39.2474 34.6691 38.4585 34.9183C38.2511 34.9838 38.0269 34.8776 37.9578 34.6811C37.8887 34.4846 38.0008 34.2723 38.2081 34.2068C38.8442 34.0059 39.5051 33.5616 40.0858 33.0616C40.6618 32.5656 41.1289 32.0412 41.3778 31.717C41.5064 31.5495 41.7539 31.5124 41.9307 31.6343Z" fill="#FF766D"/>
<path fill-rule="evenodd" clip-rule="evenodd" d="M41.9308 31.6343C42.1076 31.7561 42.1467 31.9906 42.0181 32.1581C41.7332 32.5292 41.2143 33.1092 40.5772 33.6519C40.4146 33.7903 40.1644 33.7777 40.0182 33.6237C39.8721 33.4697 39.8854 33.2326 40.048 33.0941C40.6412 32.5889 41.1234 32.0485 41.3779 31.717C41.5065 31.5495 41.754 31.5124 41.9308 31.6343Z" fill="#FFD2CF"/>
<path fill-rule="evenodd" clip-rule="evenodd" d="M29.6497 20.5007C29.8679 20.5137 30.0337 20.6917 30.02 20.8984C29.8195 23.9378 28.818 27.5819 26.9729 29.9125C26.8417 30.0782 26.5936 30.1118 26.4187 29.9875C26.2438 29.8632 26.2084 29.6282 26.3396 29.4625C28.057 27.2931 29.0346 23.8122 29.2299 20.8516C29.2436 20.6449 29.4315 20.4878 29.6497 20.5007Z" fill="#FF766D"/>
<path fill-rule="evenodd" clip-rule="evenodd" d="M29.6497 20.5007C29.8679 20.5137 30.0338 20.6917 30.0201 20.8984C29.9474 22.0002 29.7701 23.1748 29.4883 24.3342C29.4393 24.536 29.2268 24.6619 29.0138 24.6154C28.8007 24.569 28.6678 24.3677 28.7168 24.1659C28.989 23.0461 29.16 21.9122 29.23 20.8516C29.2436 20.6449 29.4316 20.4878 29.6497 20.5007Z" fill="#FFD2CF"/>
<path fill-rule="evenodd" clip-rule="evenodd" d="M30.2743 36.3369C30.4422 36.4695 30.4649 36.706 30.3249 36.8651C29.3816 37.9375 28.2308 40.1161 28.0403 42.2812C28.0222 42.4875 27.8308 42.6409 27.613 42.6237C27.3951 42.6065 27.2332 42.4253 27.2514 42.2189C27.4568 39.884 28.6809 37.5625 29.7168 36.3849C29.8567 36.2258 30.1063 36.2043 30.2743 36.3369Z" fill="#FFDEC0"/>
<path d="M38.3334 37.75C38.3334 37.9571 38.1562 38.125 37.9376 38.125C37.719 38.125 37.5417 37.9571 37.5417 37.75C37.5417 37.5429 37.719 37.375 37.9376 37.375C38.1562 37.375 38.3334 37.5429 38.3334 37.75Z" fill="#382777"/>
<path d="M37.1458 38.6875C37.1458 38.7911 37.0572 38.875 36.9479 38.875C36.8386 38.875 36.75 38.7911 36.75 38.6875C36.75 38.5839 36.8386 38.5 36.9479 38.5C37.0572 38.5 37.1458 38.5839 37.1458 38.6875Z" fill="#382777"/>
<path d="M39.1251 36.8125C39.1251 36.9161 39.0365 37 38.9272 37C38.8179 37 38.7292 36.9161 38.7292 36.8125C38.7292 36.7089 38.8179 36.625 38.9272 36.625C39.0365 36.625 39.1251 36.7089 39.1251 36.8125Z" fill="#382777"/>
<path d="M39.5208 38.3125C39.5208 38.4161 39.4322 38.5 39.3229 38.5C39.2136 38.5 39.125 38.4161 39.125 38.3125C39.125 38.2089 39.2136 38.125 39.3229 38.125C39.4322 38.125 39.5208 38.2089 39.5208 38.3125Z" fill="#382777"/>
<path d="M38.3333 39.4375C38.3333 39.5411 38.2447 39.625 38.1354 39.625C38.0261 39.625 37.9375 39.5411 37.9375 39.4375C37.9375 39.3339 38.0261 39.25 38.1354 39.25C38.2447 39.25 38.3333 39.3339 38.3333 39.4375Z" fill="#382777"/>
<path d="M37.9376 41.3125C37.9376 41.4161 37.849 41.5 37.7397 41.5C37.6304 41.5 37.5417 41.4161 37.5417 41.3125C37.5417 41.2089 37.6304 41.125 37.7397 41.125C37.849 41.125 37.9376 41.2089 37.9376 41.3125Z" fill="#382777"/>
<path d="M35.9583 35.3125C35.9583 35.4161 35.8697 35.5 35.7604 35.5C35.6511 35.5 35.5625 35.4161 35.5625 35.3125C35.5625 35.2089 35.6511 35.125 35.7604 35.125C35.8697 35.125 35.9583 35.2089 35.9583 35.3125Z" fill="#382777"/>
<path d="M35.5626 32.3125C35.5626 32.4161 35.474 32.5 35.3647 32.5C35.2554 32.5 35.1667 32.4161 35.1667 32.3125C35.1667 32.2089 35.2554 32.125 35.3647 32.125C35.474 32.125 35.5626 32.2089 35.5626 32.3125Z" fill="#382777"/>
<path d="M35.5626 33.8125C35.5626 33.9161 35.474 34 35.3647 34C35.2554 34 35.1667 33.9161 35.1667 33.8125C35.1667 33.7089 35.2554 33.625 35.3647 33.625C35.474 33.625 35.5626 33.7089 35.5626 33.8125Z" fill="#382777"/>
<path d="M34.7708 35.3125C34.7708 35.4161 34.6822 35.5 34.5729 35.5C34.4636 35.5 34.375 35.4161 34.375 35.3125C34.375 35.2089 34.4636 35.125 34.5729 35.125C34.6822 35.125 34.7708 35.2089 34.7708 35.3125Z" fill="#382777"/>
<path d="M25.6667 37.5625C25.6667 37.6661 25.5781 37.75 25.4688 37.75C25.3595 37.75 25.2709 37.6661 25.2709 37.5625C25.2709 37.4589 25.3595 37.375 25.4688 37.375C25.5781 37.375 25.6667 37.4589 25.6667 37.5625Z" fill="#382777"/>
<path d="M24.8751 35.6875C24.8751 35.7911 24.7865 35.875 24.6772 35.875C24.5679 35.875 24.4792 35.7911 24.4792 35.6875C24.4792 35.5839 24.5679 35.5 24.6772 35.5C24.7865 35.5 24.8751 35.5839 24.8751 35.6875Z" fill="#382777"/>
<path d="M27.2501 34.5625C27.2501 34.6661 27.1615 34.75 27.0522 34.75C26.9429 34.75 26.8542 34.6661 26.8542 34.5625C26.8542 34.4589 26.9429 34.375 27.0522 34.375C27.1615 34.375 27.2501 34.4589 27.2501 34.5625Z" fill="#382777"/>
<path d="M25.6667 34.5625C25.6667 34.6661 25.5781 34.75 25.4688 34.75C25.3595 34.75 25.2709 34.6661 25.2709 34.5625C25.2709 34.4589 25.3595 34.375 25.4688 34.375C25.5781 34.375 25.6667 34.4589 25.6667 34.5625Z" fill="#382777"/>
<path d="M27.6458 33.0625C27.6458 33.1661 27.5572 33.25 27.4479 33.25C27.3386 33.25 27.25 33.1661 27.25 33.0625C27.25 32.9589 27.3386 32.875 27.4479 32.875C27.5572 32.875 27.6458 32.9589 27.6458 33.0625Z" fill="#382777"/>
<path d="M25.2708 38.6875C25.2708 38.7911 25.1822 38.875 25.0729 38.875C24.9636 38.875 24.875 38.7911 24.875 38.6875C24.875 38.5839 24.9636 38.5 25.0729 38.5C25.1822 38.5 25.2708 38.5839 25.2708 38.6875Z" fill="#382777"/>
<path d="M24.0833 38.3125C24.0833 38.4161 23.9947 38.5 23.8854 38.5C23.7761 38.5 23.6875 38.4161 23.6875 38.3125C23.6875 38.2089 23.7761 38.125 23.8854 38.125C23.9947 38.125 24.0833 38.2089 24.0833 38.3125Z" fill="#382777"/>
<path d="M23.2917 39.8125C23.2917 39.9161 23.2031 40 23.0938 40C22.9845 40 22.8959 39.9161 22.8959 39.8125C22.8959 39.7089 22.9845 39.625 23.0938 39.625C23.2031 39.625 23.2917 39.7089 23.2917 39.8125Z" fill="#382777"/>
<path d="M24.4792 40.5625C24.4792 40.6661 24.3906 40.75 24.2813 40.75C24.172 40.75 24.0834 40.6661 24.0834 40.5625C24.0834 40.4589 24.172 40.375 24.2813 40.375C24.3906 40.375 24.4792 40.4589 24.4792 40.5625Z" fill="#382777"/>
<path d="M24.4792 42.0625C24.4792 42.1661 24.3906 42.25 24.2813 42.25C24.172 42.25 24.0834 42.1661 24.0834 42.0625C24.0834 41.9589 24.172 41.875 24.2813 41.875C24.3906 41.875 24.4792 41.9589 24.4792 42.0625Z" fill="#382777"/>
<path d="M33.1876 31.9375C33.1876 32.0411 33.099 32.125 32.9897 32.125C32.8804 32.125 32.7917 32.0411 32.7917 31.9375C32.7917 31.8339 32.8804 31.75 32.9897 31.75C33.099 31.75 33.1876 31.8339 33.1876 31.9375Z" fill="#382777"/>
<path d="M34.3751 32.6875C34.3751 32.7911 34.2865 32.875 34.1772 32.875C34.0679 32.875 33.9792 32.7911 33.9792 32.6875C33.9792 32.5839 34.0679 32.5 34.1772 32.5C34.2865 32.5 34.3751 32.5839 34.3751 32.6875Z" fill="#382777"/>
<path d="M33.5833 30.4375C33.5833 30.5411 33.4947 30.625 33.3854 30.625C33.2761 30.625 33.1875 30.5411 33.1875 30.4375C33.1875 30.3339 33.2761 30.25 33.3854 30.25C33.4947 30.25 33.5833 30.3339 33.5833 30.4375Z" fill="#382777"/>
<path d="M36.3542 37C36.3542 37.2071 36.1769 37.375 35.9583 37.375C35.7397 37.375 35.5625 37.2071 35.5625 37C35.5625 36.7929 35.7397 36.625 35.9583 36.625C36.1769 36.625 36.3542 36.7929 36.3542 37Z" fill="#382777"/>
<path d="M24.0834 37C24.0834 37.2071 23.9062 37.375 23.6876 37.375C23.469 37.375 23.2917 37.2071 23.2917 37C23.2917 36.7929 23.469 36.625 23.6876 36.625C23.9062 36.625 24.0834 36.7929 24.0834 37Z" fill="#382777"/>
<path d="M34.375 34C34.375 34.2071 34.1978 34.375 33.9792 34.375C33.7606 34.375 33.5834 34.2071 33.5834 34C33.5834 33.7929 33.7606 33.625 33.9792 33.625C34.1978 33.625 34.375 33.7929 34.375 34Z" fill="#382777"/>
<path d="M26.4584 35.875C26.4584 36.0821 26.2812 36.25 26.0626 36.25C25.844 36.25 25.6667 36.0821 25.6667 35.875C25.6667 35.6679 25.844 35.5 26.0626 35.5C26.2812 35.5 26.4584 35.6679 26.4584 35.875Z" fill="#382777"/>
<path d="M24.875 39.625C24.875 39.8321 24.6978 40 24.4792 40C24.2606 40 24.0834 39.8321 24.0834 39.625C24.0834 39.4179 24.2606 39.25 24.4792 39.25C24.6978 39.25 24.875 39.4179 24.875 39.625Z" fill="#382777"/>
<path d="M37.9375 36.0625C37.9375 36.3732 37.6717 36.625 37.3438 36.625C37.0158 36.625 36.75 36.3732 36.75 36.0625C36.75 35.7518 37.0158 35.5 37.3438 35.5C37.6717 35.5 37.9375 35.7518 37.9375 36.0625Z" fill="#382777"/>
</svg>
