<svg width="28" height="28" viewBox="0 0 28 28" fill="none" xmlns="http://www.w3.org/2000/svg">
<g clip-path="url(#clip0_106_4551)">
<path d="M25.5251 12.3491H15.6421C15.4246 12.3491 15.2159 12.2627 15.062 12.1088C14.9082 11.955 14.8218 11.7463 14.8218 11.5287C14.8218 11.3111 14.9082 11.1025 15.062 10.9486C15.2159 10.7948 15.4246 10.7083 15.6421 10.7083H25.5251C25.7409 10.7028 25.9459 10.6132 26.0965 10.4586C26.2471 10.3041 26.3314 10.0969 26.3314 9.88109C26.3314 9.6653 26.2471 9.45805 26.0965 9.30352C25.9459 9.14899 25.7409 9.0594 25.5251 9.05386H2.46719C2.25148 9.0594 2.04647 9.14899 1.89586 9.30352C1.74525 9.45805 1.66096 9.6653 1.66096 9.88109C1.66096 10.0969 1.74525 10.3041 1.89586 10.4586C2.04647 10.6132 2.25148 10.7028 2.46719 10.7083H5.76134C5.97892 10.7083 6.18759 10.7948 6.34145 10.9486C6.4953 11.1025 6.58173 11.3111 6.58173 11.5287C6.58173 11.7463 6.4953 11.955 6.34145 12.1088C6.18759 12.2627 5.97892 12.3491 5.76134 12.3491H2.46719C1.81271 12.3491 1.18503 12.0891 0.722235 11.6263C0.259444 11.1635 -0.000549316 10.5358 -0.000549316 9.88136C-0.000549316 9.22688 0.259444 8.5992 0.722235 8.1364C1.18503 7.67361 1.81271 7.41362 2.46719 7.41362H25.5251C26.1796 7.41362 26.8073 7.67361 27.2701 8.1364C27.7329 8.5992 27.9929 9.22688 27.9929 9.88136C27.9929 10.5358 27.7329 11.1635 27.2701 11.6263C26.8073 12.0891 26.1796 12.3491 25.5251 12.3491Z" fill="black"/>
<path d="M22.0899 9.05385C21.9277 9.05381 21.7691 9.0057 21.6343 8.91558C21.4994 8.82547 21.3943 8.6974 21.3322 8.54756C21.2701 8.39772 21.2538 8.23283 21.2853 8.07374C21.3169 7.91464 21.395 7.76848 21.5096 7.65371L26.1098 3.0524C26.1866 2.97559 26.2475 2.8844 26.289 2.78405C26.3305 2.6837 26.3519 2.57615 26.3519 2.46754C26.3519 2.35893 26.3304 2.2514 26.2889 2.15106C26.2473 2.05073 26.1863 1.95958 26.1095 1.8828C26.0327 1.80602 25.9415 1.74512 25.8412 1.70358C25.7408 1.66204 25.6333 1.64067 25.5247 1.6407C25.416 1.64073 25.3085 1.66214 25.2082 1.70373C25.1078 1.74531 25.0167 1.80625 24.9399 1.88307L18.0114 8.81375C17.8567 8.96319 17.6495 9.04588 17.4344 9.04401C17.2193 9.04214 17.0135 8.95586 16.8614 8.80375C16.7093 8.65165 16.623 8.44588 16.6211 8.23078C16.6193 8.01567 16.7019 7.80844 16.8514 7.65371L23.781 0.723035C24.126 0.378126 24.5656 0.143271 25.0442 0.0481595C25.5227 -0.0469516 26.0187 0.00195169 26.4694 0.188687C26.9202 0.375423 27.3054 0.691606 27.5765 1.09727C27.8476 1.50292 27.9923 1.97985 27.9923 2.46774C27.9931 2.79174 27.9296 3.11268 27.8055 3.41198C27.6814 3.71127 27.4991 3.98297 27.2693 4.21134L22.6696 8.81211C22.5936 8.88851 22.5033 8.94918 22.4038 8.99066C22.3043 9.03214 22.1976 9.05361 22.0899 9.05385Z" fill="black"/>
<path d="M13.9964 28.0027C10.7149 28.0027 7.62582 26.8575 5.30028 24.7759C2.94849 22.6735 1.64954 19.8705 1.64954 16.8837C1.64954 14.8228 2.28014 12.8112 3.47245 11.0665C3.53135 10.9734 3.60842 10.8931 3.69904 10.8304C3.78967 10.7677 3.892 10.7239 3.99993 10.7016C4.10786 10.6793 4.21917 10.679 4.32722 10.7007C4.43527 10.7223 4.53785 10.7656 4.62883 10.8278C4.71981 10.89 4.79732 10.9699 4.85674 11.0627C4.91617 11.1555 4.95628 11.2593 4.97469 11.368C4.9931 11.4766 4.98944 11.5879 4.96391 11.6951C4.93837 11.8023 4.89151 11.9033 4.8261 11.9919C3.82139 13.4632 3.28977 15.1543 3.28977 16.8837C3.28704 22.1079 8.09126 26.3619 13.9964 26.3619C19.9016 26.3619 24.7053 22.1107 24.7053 16.8859C24.7053 15.1565 24.1742 13.4654 23.169 11.9941C23.0532 11.8145 23.0121 11.5967 23.0544 11.3872C23.0968 11.1777 23.2192 10.993 23.3957 10.8724C23.5722 10.7518 23.7888 10.7048 23.9993 10.7415C24.2099 10.7782 24.3979 10.8956 24.5232 11.0687C25.7155 12.8134 26.3455 14.825 26.3455 16.8859C26.3455 19.8699 25.0493 22.6729 22.6975 24.7759C20.3665 26.8542 17.2775 28.0027 13.9964 28.0027Z" fill="black"/>
<path d="M2.46718 28.0027C1.97945 28.0023 1.50279 27.8574 1.09738 27.5862C0.691976 27.3151 0.37601 26.9299 0.189387 26.4792C0.00276392 26.0286 -0.046147 25.5328 0.0488311 25.0544C0.143809 24.576 0.378417 24.1365 0.723026 23.7914L3.28593 21.2208C3.44066 21.0714 3.64789 20.9887 3.863 20.9906C4.0781 20.9924 4.28387 21.0787 4.43597 21.2308C4.58808 21.3829 4.67436 21.5887 4.67623 21.8038C4.6781 22.0189 4.59541 22.2261 4.44597 22.3809L1.88251 24.947C1.80361 25.0233 1.74067 25.1145 1.69738 25.2154C1.65408 25.3162 1.63129 25.4247 1.63034 25.5344C1.62938 25.6442 1.65028 25.753 1.69181 25.8546C1.73334 25.9562 1.79468 26.0485 1.87224 26.1261C1.94981 26.2037 2.04205 26.2651 2.14359 26.3068C2.24514 26.3484 2.35395 26.3694 2.46369 26.3685C2.57343 26.3677 2.68191 26.345 2.78279 26.3018C2.88368 26.2586 2.97495 26.1958 3.0513 26.1169L5.43481 23.7329C5.51049 23.6545 5.60102 23.592 5.70111 23.549C5.8012 23.506 5.90885 23.4834 6.01778 23.4824C6.12672 23.4815 6.23474 23.5022 6.33557 23.5435C6.43639 23.5847 6.52799 23.6457 6.60502 23.7227C6.68205 23.7997 6.74296 23.8913 6.78421 23.9921C6.82546 24.093 6.84622 24.201 6.84527 24.3099C6.84433 24.4189 6.8217 24.5265 6.7787 24.6266C6.7357 24.7267 6.6732 24.8172 6.59485 24.8929L4.21134 27.277C3.98312 27.5074 3.71144 27.6901 3.41203 27.8147C3.11263 27.9393 2.79147 28.0032 2.46718 28.0027Z" fill="black"/>
<path d="M25.5252 28.0027C25.201 28.0036 24.8799 27.9401 24.5805 27.8159C24.2811 27.6917 24.0093 27.5092 23.781 27.2791L21.398 24.8956C21.2512 24.7405 21.1707 24.5341 21.1736 24.3205C21.1765 24.1069 21.2626 23.9029 21.4137 23.7518C21.5647 23.6007 21.7687 23.5145 21.9823 23.5114C22.1959 23.5084 22.4023 23.5888 22.5575 23.7356L24.9399 26.1169C25.0959 26.2678 25.3048 26.3513 25.5218 26.3495C25.7387 26.3478 25.9463 26.2608 26.0997 26.1074C26.2531 25.9539 26.3401 25.7464 26.3419 25.5294C26.3437 25.3125 26.2601 25.1035 26.1093 24.9476L23.5453 22.3825C23.3912 22.2285 23.3047 22.0197 23.3046 21.8019C23.3046 21.584 23.391 21.3751 23.545 21.2211C23.699 21.067 23.9078 20.9805 24.1256 20.9804C24.3435 20.9804 24.5524 21.0668 24.7064 21.2208L27.2699 23.7854C27.6142 24.1306 27.8486 24.5702 27.9434 25.0485C28.0382 25.5269 27.9892 26.0226 27.8026 26.4731C27.6159 26.9237 27.3 27.3088 26.8947 27.58C26.4894 27.8511 26.0128 27.9961 25.5252 27.9967V28.0027Z" fill="black"/>
<path d="M10.7023 4.93548C10.2142 4.93559 9.73703 4.79095 9.33114 4.51986C8.92525 4.24877 8.60887 3.8634 8.42201 3.41248C8.23515 2.96157 8.1862 2.46538 8.28136 1.98664C8.37652 1.50791 8.6115 1.06815 8.9566 0.722979C9.3017 0.377805 9.74141 0.142721 10.2201 0.0474581C10.6988 -0.0478046 11.195 0.00103299 11.646 0.187794C12.0969 0.374556 12.4824 0.690852 12.7536 1.09668C13.0247 1.50251 13.1695 1.97965 13.1695 2.46774C13.1688 3.12191 12.9086 3.74909 12.4461 4.21171C11.9836 4.67432 11.3565 4.93461 10.7023 4.93548ZM10.7023 1.64079C10.5387 1.64079 10.3789 1.68929 10.2429 1.78015C10.1069 1.87102 10.0009 2.00017 9.93829 2.15128C9.8757 2.30239 9.85932 2.46866 9.89123 2.62907C9.92314 2.78949 10.0019 2.93684 10.1176 3.05249C10.2332 3.16814 10.3806 3.2469 10.541 3.27881C10.7014 3.31072 10.8677 3.29434 11.0188 3.23175C11.1699 3.16916 11.299 3.06317 11.3899 2.92717C11.4808 2.79118 11.5293 2.6313 11.5293 2.46774C11.5291 2.24846 11.4419 2.03821 11.2869 1.88316C11.1318 1.7281 10.9216 1.64093 10.7023 1.64079Z" fill="black"/>
<path d="M2.46719 5.75916C2.44016 5.75925 2.41314 5.75797 2.38624 5.75533C2.35944 5.7527 2.33278 5.74868 2.30639 5.7433C2.28069 5.73783 2.2517 5.73127 2.22927 5.72361C2.17816 5.70761 2.12856 5.68711 2.08106 5.66235C2.00969 5.62457 1.94443 5.57627 1.88744 5.51906C1.86821 5.49994 1.84995 5.47986 1.83275 5.4589C1.8158 5.43866 1.79994 5.41678 1.78462 5.39436C1.76931 5.37193 1.75618 5.34896 1.7436 5.32544C1.73109 5.30111 1.71995 5.2761 1.71024 5.25052C1.69983 5.22584 1.69071 5.20065 1.68289 5.17504C1.67524 5.14933 1.66867 5.12035 1.6632 5.09683C1.65786 5.07061 1.65384 5.04414 1.65117 5.01752C1.64853 4.99062 1.64725 4.96361 1.64734 4.93658C1.64725 4.90973 1.64853 4.8829 1.65117 4.85618C1.6538 4.82937 1.65782 4.80272 1.6632 4.77633C1.66867 4.75008 1.67524 4.72164 1.68289 4.69866C1.69889 4.64755 1.71939 4.59795 1.74415 4.55045C1.75674 4.52791 1.77043 4.50601 1.78517 4.48482C1.80048 4.46239 1.81634 4.44051 1.8333 4.41973C1.85037 4.39882 1.86863 4.37892 1.88799 4.36012C1.94498 4.30292 2.01025 4.25461 2.0816 4.21682C2.10512 4.20424 2.12973 4.19276 2.15435 4.18236C2.17884 4.17244 2.20385 4.16386 2.22927 4.15666C2.25455 4.1485 2.2803 4.14192 2.30639 4.13697C2.33274 4.13132 2.3594 4.1273 2.38624 4.12494C2.43989 4.11947 2.49395 4.11947 2.54759 4.12494C2.57365 4.12667 2.59958 4.12996 2.62525 4.13478C2.65151 4.1398 2.67744 4.14637 2.70291 4.15447C2.72855 4.16201 2.75374 4.17096 2.77839 4.18127C2.803 4.19166 2.82761 4.20315 2.85113 4.21573C2.87478 4.22822 2.89778 4.24191 2.92005 4.25675C2.94254 4.27168 2.96426 4.28774 2.98513 4.30488C3.02661 4.33906 3.06471 4.37716 3.09889 4.41864C3.11585 4.43942 3.13171 4.4613 3.14702 4.48372C3.16185 4.50598 3.17554 4.52898 3.18804 4.55263C3.20062 4.57615 3.21211 4.60076 3.2225 4.62538C3.23289 4.64999 3.24164 4.67515 3.2493 4.70085C3.25695 4.72656 3.26352 4.75226 3.26899 4.77852C3.27455 4.8049 3.27875 4.83155 3.28157 4.85837C3.28421 4.88509 3.28548 4.91192 3.28539 4.93877C3.28548 4.9658 3.2842 4.99281 3.28157 5.01971C3.27889 5.04633 3.27488 5.0728 3.26953 5.09902C3.26406 5.12527 3.2575 5.15371 3.24984 5.17723C3.24219 5.20075 3.23289 5.22809 3.22304 5.2527C3.2132 5.27732 3.20117 5.30193 3.18859 5.32544C3.17601 5.34896 3.16233 5.37193 3.14757 5.39436C3.1328 5.41678 3.11639 5.43866 3.09944 5.4589C3.08224 5.47986 3.06398 5.49994 3.04475 5.51906C3.02594 5.53842 3.00604 5.55668 2.98513 5.57375C2.94318 5.60737 2.89834 5.6372 2.85113 5.6629C2.80363 5.68766 2.75403 5.70816 2.70291 5.72416C2.67721 5.73181 2.64822 5.73838 2.62525 5.74384C2.59886 5.74923 2.57221 5.75325 2.5454 5.75588C2.5194 5.75825 2.4933 5.75934 2.46719 5.75916Z" fill="black"/>
<path d="M5.76131 4.11181C5.73427 4.11171 5.70726 4.11025 5.68037 4.10743C5.65353 4.10506 5.62686 4.10104 5.60052 4.0954C5.57426 4.09038 5.54833 4.08381 5.52285 4.07571C5.49719 4.06763 5.47199 4.05814 5.44738 4.04727C5.42276 4.03688 5.39815 4.02539 5.37463 4.01281C5.35083 4.00087 5.32765 3.98772 5.30517 3.97343C5.28268 3.9585 5.26096 3.94244 5.24009 3.9253C5.21948 3.90809 5.19977 3.88984 5.18102 3.87061C5.16166 3.85181 5.1434 3.8319 5.12633 3.81099C5.10937 3.79021 5.09351 3.76833 5.0782 3.74591C5.06337 3.72365 5.04968 3.70065 5.03718 3.677C5.02455 3.65358 5.01323 3.62947 5.00327 3.6048C4.99286 3.57995 4.98374 3.55457 4.97592 3.52878C4.96827 3.50362 4.9617 3.47737 4.95623 3.45112C4.95085 3.42472 4.94683 3.39807 4.9442 3.37126C4.94156 3.34455 4.94028 3.31771 4.94037 3.29087C4.94028 3.26384 4.94156 3.23682 4.9442 3.20992C4.94687 3.1833 4.95089 3.15683 4.95623 3.13062C4.9617 3.10436 4.96827 3.07592 4.97592 3.05241C4.98374 3.02679 4.99286 3.0016 5.00327 2.97693C5.01323 2.95208 5.02455 2.9278 5.03718 2.90419C5.04958 2.88085 5.06325 2.85788 5.0782 2.83527C5.09351 2.81285 5.10937 2.79097 5.12633 2.77074C5.14353 2.74977 5.16179 2.72969 5.18102 2.71058C5.19962 2.69198 5.21985 2.67338 5.24009 2.65588C5.26099 2.6393 5.28271 2.62378 5.30517 2.60939C5.32754 2.59509 5.35073 2.58212 5.37463 2.57056C5.39815 2.55798 5.42276 2.5465 5.44738 2.5361C5.47199 2.52571 5.49715 2.51696 5.52285 2.50931C5.54833 2.50121 5.57426 2.49463 5.60052 2.48962C5.62677 2.48415 5.65521 2.48032 5.68037 2.47704C5.73491 2.47138 5.7899 2.47138 5.84445 2.47704C5.87125 2.48032 5.89914 2.48415 5.9243 2.48962C5.95055 2.49463 5.97649 2.50121 6.00196 2.50931C6.02767 2.51696 6.05283 2.52626 6.07744 2.5361C6.10205 2.54595 6.12666 2.55798 6.15018 2.57056C6.17394 2.58285 6.19696 2.59655 6.21909 2.61158C6.24158 2.62633 6.2633 2.64221 6.28418 2.65916C6.30496 2.67612 6.3252 2.69471 6.34379 2.71386C6.36303 2.73297 6.38128 2.75305 6.39848 2.77402C6.41574 2.7946 6.43181 2.81615 6.44661 2.83856C6.46156 2.8608 6.47524 2.88377 6.48763 2.90747C6.50021 2.93099 6.5117 2.9556 6.52209 2.98021C6.53248 3.00482 6.54123 3.03053 6.54889 3.05569C6.55705 3.08133 6.56363 3.10745 6.56858 3.1339C6.57392 3.16011 6.57794 3.18658 6.58061 3.2132C6.58343 3.24009 6.58489 3.26711 6.58499 3.29415C6.58489 3.321 6.58343 3.34784 6.58061 3.37455C6.57798 3.40135 6.57396 3.42801 6.56858 3.4544C6.56369 3.48068 6.55712 3.50662 6.54889 3.53206C6.54123 3.55777 6.53193 3.58293 6.52209 3.60808C6.51225 3.63324 6.50021 3.65676 6.48763 3.68028C6.47514 3.70393 6.46145 3.72693 6.44661 3.74919C6.43168 3.77169 6.41562 3.79341 6.39848 3.81428C6.3643 3.85576 6.3262 3.89385 6.28472 3.92804C6.26386 3.94517 6.24213 3.96123 6.21964 3.97617C6.19738 3.991 6.17438 4.00469 6.15073 4.01719C6.12721 4.02977 6.1026 4.04125 6.07798 4.05164C6.05334 4.06196 6.02814 4.0709 6.00251 4.07844C5.97703 4.08654 5.9511 4.09312 5.92484 4.09813C5.8985 4.10378 5.87183 4.1078 5.84499 4.11016C5.81715 4.11217 5.78922 4.11272 5.76131 4.11181Z" fill="black"/>
<path d="M7.40811 19.7627C6.75394 19.7618 6.12682 19.5016 5.66431 19.0389C5.20179 18.5763 4.94164 17.9491 4.94092 17.295V8.23401C4.94092 8.01643 5.02735 7.80776 5.18121 7.65391C5.33506 7.50005 5.54373 7.41362 5.76131 7.41362C5.97889 7.41362 6.18756 7.50005 6.34142 7.65391C6.49527 7.80776 6.5817 8.01643 6.5817 8.23401V17.295C6.5817 17.5143 6.66883 17.7246 6.82391 17.8797C6.979 18.0348 7.18934 18.1219 7.40866 18.1219C7.62798 18.1219 7.83832 18.0348 7.99341 17.8797C8.14849 17.7246 8.23562 17.5143 8.23562 17.295V14.8218C8.23562 14.4978 8.29943 14.1769 8.42342 13.8776C8.54741 13.5783 8.72914 13.3063 8.95824 13.0772C9.18734 12.8481 9.45932 12.6664 9.75866 12.5424C10.058 12.4184 10.3788 12.3546 10.7028 12.3546C11.0268 12.3546 11.3476 12.4184 11.647 12.5424C11.9463 12.6664 12.2183 12.8481 12.4474 13.0772C12.6765 13.3063 12.8582 13.5783 12.9822 13.8776C13.1062 14.1769 13.17 14.4978 13.17 14.8218C13.1642 14.9338 13.1813 15.0458 13.2202 15.151C13.2591 15.2563 13.319 15.3525 13.3963 15.4338C13.4735 15.5151 13.5665 15.5799 13.6696 15.6242C13.7727 15.6684 13.8837 15.6912 13.9959 15.6912C14.108 15.6912 14.219 15.6684 14.3221 15.6242C14.4252 15.5799 14.5182 15.5151 14.5955 15.4338C14.6727 15.3525 14.7326 15.2563 14.7715 15.151C14.8104 15.0458 14.8275 14.9338 14.8217 14.8218V8.23401C14.8217 8.01643 14.9082 7.80776 15.062 7.65391C15.2159 7.50005 15.4245 7.41362 15.6421 7.41362C15.8597 7.41362 16.0684 7.50005 16.2222 7.65391C16.3761 7.80776 16.4625 8.01643 16.4625 8.23401V14.8218C16.4674 15.1488 16.4072 15.4736 16.2854 15.7771C16.1636 16.0807 15.9827 16.357 15.7531 16.59C15.5235 16.823 15.2499 17.0081 14.9482 17.1344C14.6465 17.2607 14.3227 17.3257 13.9956 17.3257C13.6685 17.3257 13.3447 17.2607 13.043 17.1344C12.7412 17.0081 12.4676 16.823 12.2381 16.59C12.0085 16.357 11.8276 16.0807 11.7058 15.7771C11.584 15.4736 11.5238 15.1488 11.5287 14.8218C11.5287 14.6024 11.4415 14.3921 11.2865 14.237C11.1314 14.0819 10.921 13.9948 10.7017 13.9948C10.4824 13.9948 10.2721 14.0819 10.117 14.237C9.96188 14.3921 9.87476 14.6024 9.87476 14.8218V17.2933C9.87447 17.9477 9.61459 18.5752 9.15214 19.0382C8.6897 19.5011 8.06247 19.7617 7.40811 19.7627Z" fill="black"/>
</g>
<defs>
<clipPath id="clip0_106_4551">
<rect width="27.9923" height="28" fill="white"/>
</clipPath>
</defs>
</svg>
