<svg width="22" height="28" viewBox="0 0 22 28" fill="none" xmlns="http://www.w3.org/2000/svg">
<path d="M15.5553 6.29498C16.39 6.29498 17.1906 5.96337 17.7809 5.3731C18.3711 4.78283 18.7028 3.98226 18.7028 3.14749C18.7028 2.31272 18.3711 1.51215 17.7809 0.921878C17.1906 0.331609 16.39 0 15.5553 0C14.7205 0 13.9199 0.331609 13.3297 0.921878C12.7394 1.51215 12.4078 2.31272 12.4078 3.14749C12.4078 3.98226 12.7394 4.78283 13.3297 5.3731C13.9199 5.96337 14.7205 6.29498 15.5553 6.29498ZM9.23231 9.28999C8.3601 9.50682 7.76488 9.83276 7.28436 10.237C6.56394 10.8441 5.982 11.7199 5.19583 13.0964C5.01172 13.4185 4.70718 13.6543 4.34922 13.7519C3.99125 13.8495 3.60918 13.8008 3.28705 13.6167C2.96493 13.4326 2.72913 13.1281 2.63154 12.7701C2.53395 12.4122 2.58255 12.0301 2.76667 11.708C3.54934 10.3392 4.34041 9.05847 5.4826 8.09744C6.67445 7.09304 8.13349 6.52509 10.101 6.30617C10.9236 6.21524 11.8286 6.23343 12.6771 6.61183C13.5675 7.00981 14.2179 7.72254 14.6614 8.67518C15.2587 9.95726 15.7028 10.7203 16.0582 11.1631C16.2295 11.375 16.3491 11.4736 16.417 11.5177C16.4708 11.5527 16.4939 11.5555 16.5023 11.5569C16.5632 11.5639 16.7611 11.5569 17.3402 11.3002C17.5927 11.1883 17.8683 11.054 18.2055 10.8896L18.2859 10.8504C18.6982 10.647 19.1142 10.4511 19.5337 10.2629C19.8724 10.1142 20.2561 10.1057 20.6011 10.2393C20.946 10.3728 21.224 10.6375 21.3743 10.9755C21.5245 11.3135 21.5348 11.6972 21.4029 12.0428C21.271 12.3883 21.0076 12.6675 20.6703 12.8194C20.2816 12.9938 19.8961 13.1755 19.5141 13.3642L19.4225 13.409C19.1 13.5664 18.7755 13.7252 18.4712 13.8594C17.8417 14.1378 17.0374 14.44 16.1652 14.3344C15.2447 14.2225 14.5355 13.7028 13.9514 13.0054L12.0399 16.6936L14.6838 20.1334C14.8411 20.3391 14.9384 20.5839 14.9656 20.8413L15.5476 26.434C15.5697 26.6183 15.555 26.8051 15.5043 26.9836C15.4535 27.1622 15.3678 27.3288 15.252 27.4738C15.1362 27.6189 14.9927 27.7394 14.8299 27.8285C14.667 27.9175 14.4881 27.9733 14.3035 27.9925C14.1189 28.0117 13.9323 27.994 13.7547 27.9404C13.577 27.8868 13.4117 27.7984 13.2686 27.6803C13.1254 27.5622 13.0072 27.4168 12.9207 27.2525C12.8343 27.0883 12.7814 26.9085 12.7652 26.7236L12.2238 21.5246L10.6179 19.4347L10.6039 19.4606L10.5452 19.3403L7.57813 15.4794C7.43227 15.2896 7.33755 15.0656 7.30302 14.8287C7.26848 14.5919 7.29529 14.3501 7.38089 14.1266L9.23231 9.28999Z" fill="#111111"/>
<path d="M7.11439 17.4909L6.08481 20.2607L2.02805 19.939C1.84361 19.9218 1.6576 19.9415 1.48082 19.9968C1.30405 20.0522 1.14002 20.1421 0.99826 20.2613C0.856502 20.3805 0.739835 20.5267 0.65503 20.6914C0.570226 20.8561 0.518973 21.036 0.504245 21.2206C0.489518 21.4053 0.511609 21.591 0.569238 21.7671C0.626866 21.9431 0.718884 22.106 0.839951 22.2461C0.961017 22.3863 1.10872 22.5011 1.27449 22.5838C1.44027 22.6664 1.6208 22.7153 1.80563 22.7276L6.91715 23.1333C7.22051 23.1575 7.52346 23.082 7.78008 22.9184C8.03669 22.7548 8.23295 22.512 8.33911 22.2268L9.12599 20.1089L7.11439 17.4909Z" fill="#111111"/>
</svg>
