<svg width="24" height="24" viewBox="0 0 24 24" fill="none" xmlns="http://www.w3.org/2000/svg">
<path d="M7.89 7.73625C7.89 7.73625 7.21875 11.1075 7.53 12.0375C7.53 12.0375 7.9425 6.9375 11.9063 3C11.9063 3 11.7788 6.29625 13.8375 7.96875C15.8963 9.64125 16.3613 12.2438 16.3613 12.2438C16.3613 12.2438 16.5938 10.4663 15.8963 7.62C15.8963 7.62 20.2725 12.165 18.2663 17.2388C18.2663 17.2388 15.8475 22.8263 8.92125 20.3813C1.995 17.9363 6.6525 8.61375 7.89 7.73625Z" fill="#F6AF62"/>
<path d="M15.2813 12.045C15.345 13.4737 14.7 13.8487 14.1788 13.9237C13.845 13.9725 13.5075 13.8862 13.215 13.725C10.3463 12.1687 11.82 8.36621 11.82 8.36621C9.94128 10.1625 10.92 13.8937 10.92 13.8937C10.92 13.8937 11.5013 16.0087 10.3125 16.1925C9.71628 16.2862 9.43878 16.0462 9.31128 15.7875C9.19503 15.5475 9.19503 15.2662 9.29628 15.0187C10.1025 13.0162 9.41253 11.8837 9.41253 11.8837C9.02628 13.0312 8.61753 13.7887 8.32128 14.2425C7.90128 14.8875 7.63503 15.6225 7.59753 16.3912C7.46253 19.2562 9.86253 20.4 9.86253 20.4C13.8038 22.41 15.5738 18.735 15.5738 18.735C17.61 14.82 15.2813 12.045 15.2813 12.045Z" fill="#FBD872"/>
</svg>
